<svg id="Layer_1" xmlns="http://www.w3.org/2000/svg" width="130" height="44" viewBox="0 0 129 33.1"><style>.st0{fill:#4a2f73}</style><path class="st0" d="M18 30.5v-1.8H0v1.8h18zm6.2-4.5v-9.8c0-1.9.3-3.3.9-4.1.6-.8 1.6-1.2 3-1.2 1.2 0 2.1.4 2.6 1.1s.7 1.9.7 3.4V26h5.1V14.6c0-1.2-.1-2.2-.3-3.1s-.5-1.8-1-2.5-1.2-1.2-2.1-1.6c-.9-.4-2-.6-3.4-.6-1.1 0-2.1.2-3.2.7S24.6 8.8 24 9.9h-.1V7.4H19V26h5.2zm24.4.5c1.5 0 2.8-.2 4-.7s2.2-1.1 3-2 1.5-1.9 1.9-3.1.7-2.5.7-4-.2-2.8-.7-4.1c-.5-1.2-1.1-2.2-1.9-3.1-.8-.9-1.9-1.5-3-2s-2.5-.7-4-.7-2.8.2-4 .7c-1.1.4-2.2 1.1-3 2-.8.9-1.5 1.9-1.9 3.1s-.7 2.6-.7 4.1.2 2.8.7 4c.5 1.2 1.1 2.2 1.9 3.1.9.9 1.9 1.5 3 2 1.2.4 2.5.7 4 .7zm0-3.8c-.9 0-1.6-.2-2.2-.5-.6-.3-1-.8-1.4-1.4-.4-.6-.6-1.2-.7-1.9-.3-1.4-.3-2.9 0-4.4.1-.7.4-1.4.7-1.9.3-.6.8-1 1.4-1.4.6-.3 1.3-.5 2.2-.5s1.6.2 2.2.5c.6.3 1.1.8 1.4 1.4.3.6.6 1.2.7 1.9.3 1.4.3 2.9 0 4.4-.1.7-.4 1.3-.7 1.9-.3.6-.8 1-1.4 1.4-.6.3-1.3.5-2.2.5zM66 26V.3h-5.1V26H66zm12.2.5c1.5 0 2.8-.2 4-.7 1.2-.5 2.2-1.1 3-2s1.5-1.9 1.9-3.1.7-2.5.7-4-.2-2.8-.7-4.1-1.1-2.2-1.9-3.1c-.8-.9-1.9-1.5-3-2s-2.5-.7-4-.7-2.8.2-4 .7c-1.1.4-2.2 1.1-3 2-.8.9-1.5 1.9-1.9 3.1s-.7 2.6-.7 4.1.2 2.8.7 4c.5 1.2 1.1 2.2 1.9 3.1.9.9 1.9 1.5 3 2 1.2.4 2.5.7 4 .7zm0-3.8c-.9 0-1.6-.2-2.2-.5-.6-.3-1-.8-1.4-1.4-.4-.6-.6-1.2-.7-1.9-.3-1.4-.3-2.9 0-4.4.1-.7.4-1.4.7-1.9.3-.6.8-1 1.4-1.4.6-.3 1.3-.5 2.2-.5.9 0 1.6.2 2.2.5.6.3 1.1.8 1.4 1.4.3.6.6 1.2.7 1.9.3 1.4.3 2.9 0 4.4-.1.7-.4 1.3-.7 1.9-.3.6-.8 1-1.4 1.4-.6.3-1.4.5-2.2.5zM98.5 33c2.1 0 3.8-.3 5.1-.9s2.2-1.3 2.9-2.1 1.1-1.7 1.3-2.7.3-1.8.3-2.6V7.4h-4.9v2.5h-.1c-.6-1.1-1.4-1.8-2.3-2.3-.9-.5-2-.7-3.2-.7-1.3 0-2.4.3-3.4.8s-1.8 1.2-2.5 2c-.7.9-1.2 1.9-1.5 3-.3 1.1-.5 2.3-.5 3.5 0 1.3.2 2.5.4 3.6.3 1.1.8 2.1 1.4 3 .7.9 1.5 1.6 2.5 2 1 .5 2.2.7 3.6.7 1.1 0 2.2-.2 3.2-.7 1-.5 1.8-1.2 2.4-2.2h.1V25c0 1.3-.3 2.4-1 3.3s-1.7 1.3-3.2 1.3c-.9 0-1.7-.2-2.4-.6s-1.2-1-1.4-2h-5.1c.1 1.1.4 2 .9 2.7.5.7 1.2 1.4 1.9 1.9.8.5 1.6.8 2.6 1.1 1.1.2 2 .3 2.9.3zm.4-11.4c-.8 0-1.5-.2-2-.5s-1-.8-1.3-1.3c-.3-.5-.6-1.2-.7-1.8-.1-.7-.2-1.3-.2-2s.1-1.4.2-2c.2-.6.4-1.2.8-1.7.3-.5.8-.9 1.3-1.2s1.1-.4 1.9-.4c.8 0 1.5.2 2.1.5.6.3 1 .7 1.3 1.3s.6 1.1.7 1.8c.1.7.2 1.4.2 2.2 0 .7-.1 1.3-.3 1.9-.2.6-.4 1.1-.8 1.6s-.8.9-1.4 1.2c-.4.3-1 .4-1.8.4zm15.3 10.9c1.8 0 3.1-.3 4.1-1 1-.6 1.8-1.7 2.3-3.2l7.8-20.9h-5.3L119 20.1h-.1l-4.2-12.7h-5.4l6.5 17.5c.1.4.2.7.2 1.2 0 .6-.2 1.1-.5 1.5s-.8.7-1.5.8h-1.5c-.5 0-1-.1-1.5-.1v4.2c.5 0 1.1.1 1.6.1s1-.1 1.6-.1z"/></svg>